<?xml version="1.0" standalone="no"?>
<!DOCTYPE svg PUBLIC "-//W3C//DTD SVG 20010904//EN"
 "http://www.w3.org/TR/2001/REC-SVG-20010904/DTD/svg10.dtd">
<svg version="1.0" xmlns="http://www.w3.org/2000/svg"
 width="200.000000pt" height="200.000000pt" viewBox="0 0 200.000000 200.000000"
 preserveAspectRatio="xMidYMid meet">

<g transform="translate(0.000000,200.000000) scale(0.100000,-0.100000)"
fill="#000000" stroke="none">
<path d="M855 1980 c-112 -13 -163 -28 -270 -79 -137 -67 -198 -110 -312 -222
-80 -78 -107 -112 -146 -187 -26 -50 -55 -115 -63 -144 -9 -29 -20 -57 -24
-63 -15 -18 -40 -176 -40 -251 0 -90 26 -258 45 -293 20 -36 18 -16 -5 81 -21
87 -24 150 -10 183 7 17 9 16 9 -10 1 -17 5 -35 10 -40 5 -6 23 -62 40 -125
37 -137 60 -199 107 -288 100 -189 234 -321 419 -411 58 -28 75 -40 60 -43
-14 -3 -2 -10 37 -22 32 -10 60 -22 64 -28 4 -6 21 -7 41 -3 26 5 33 3 27 -6
-5 -9 0 -10 20 -5 17 4 26 2 26 -5 0 -17 251 -5 349 16 154 32 342 141 482
279 122 118 184 216 215 334 8 31 19 61 24 66 15 19 40 175 40 252 0 90 -26
258 -45 293 -20 36 -18 16 5 -81 21 -87 24 -150 10 -183 -7 -17 -9 -16 -9 11
-1 16 -5 34 -10 40 -5 5 -21 55 -36 112 -88 350 -261 581 -530 711 -58 28 -75
40 -60 43 14 3 2 10 -37 22 -32 10 -60 22 -64 28 -4 5 -21 7 -40 3 -22 -4 -34
-2 -34 5 0 7 -8 9 -19 5 -11 -3 -22 -1 -26 5 -7 11 -143 11 -250 0z m332 -36
c-3 -3 -12 -4 -19 -1 -8 3 -5 6 6 6 11 1 17 -2 13 -5z m50 -10 c-3 -3 -12 -4
-19 -1 -8 3 -5 6 6 6 11 1 17 -2 13 -5z m18 -79 c61 -19 134 -49 163 -67 81
-50 187 -143 239 -211 58 -75 133 -219 133 -255 0 -38 28 -134 29 -102 1 21 3
22 12 10 22 -31 0 85 -30 159 -17 41 -29 77 -26 79 6 7 61 -109 83 -178 25
-77 44 -206 42 -275 -1 -28 -1 -63 -1 -78 1 -51 -38 -217 -69 -295 -17 -42
-47 -101 -66 -130 -49 -75 -165 -194 -232 -238 -31 -20 -68 -45 -82 -54 -43
-28 -172 -77 -250 -95 -49 -11 -120 -16 -210 -16 -127 0 -142 2 -245 35 -226
72 -389 218 -502 447 -18 37 -33 82 -34 101 -1 40 -11 70 -24 67 -6 -1 -15 16
-22 37 -11 38 -12 37 -6 -21 3 -33 20 -100 39 -150 18 -49 31 -91 29 -93 -7
-7 -61 110 -83 178 -62 195 -52 447 27 645 117 290 417 507 741 534 141 11
227 3 345 -34z m-480 -1785 c13 -6 15 -9 5 -9 -8 0 -22 4 -30 9 -18 12 -2 12
25 0z m62 -16 c-3 -3 -12 -4 -19 -1 -8 3 -5 6 6 6 11 1 17 -2 13 -5z"/>
<path d="M792 1488 c-16 -16 -16 -70 0 -86 7 -7 21 -12 33 -12 30 0 45 19 45
55 0 36 -15 55 -45 55 -12 0 -26 -5 -33 -12z"/>
<path d="M1222 1283 c-18 -9 -49 -34 -67 -56 l-35 -41 0 36 c0 56 -8 68 -46
68 l-34 0 0 -280 0 -280 45 0 45 0 0 178 c0 164 2 181 23 222 30 61 76 90 142
90 46 0 53 3 59 23 14 52 9 57 -46 57 -29 0 -68 -8 -86 -17z"/>
<path d="M780 942 c0 -408 3 -396 -87 -390 l-54 3 3 -35 3 -35 62 -3 c74 -4
115 14 140 61 16 29 18 70 21 390 l3 357 -45 0 -46 0 0 -348z"/>
<path d="M1841 1194 c0 -11 3 -14 6 -6 3 7 2 16 -1 19 -3 4 -6 -2 -5 -13z"/>
<path d="M181 784 c0 -11 3 -14 6 -6 3 7 2 16 -1 19 -3 4 -6 -2 -5 -13z"/>
<path d="M1570 1780 c0 -5 4 -10 8 -10 4 0 37 -27 72 -60 84 -79 115 -96 71
-42 -63 81 -151 145 -151 112z"/>
<path d="M280 330 c11 -16 44 -50 73 -75 50 -43 77 -56 77 -35 0 6 -4 10 -8
10 -4 0 -39 29 -77 65 -76 70 -99 82 -65 35z"/>
<path d="M467 179 c7 -7 15 -10 18 -7 3 3 -2 9 -12 12 -14 6 -15 5 -6 -5z"/>
<path d="M577 119 c7 -7 15 -10 18 -7 3 3 -2 9 -12 12 -14 6 -15 5 -6 -5z"/>
</g>
</svg>
